<?xml version="1.0" encoding="utf-8"?>
<!-- Generator: Adobe Illustrator 25.2.3, SVG Export Plug-In . SVG Version: 6.00 Build 0)  -->
<svg version="1.1" id="Layer_1" xmlns="http://www.w3.org/2000/svg" xmlns:xlink="http://www.w3.org/1999/xlink" x="0px" y="0px"
	 viewBox="0 0 300 400" style="enable-background:new 0 0 300 400;" xml:space="preserve">
<style type="text/css">
	.st0{fill:#FFFFFF;}
	.st1{stroke:#000000;stroke-width:0.6132;stroke-miterlimit:10;}
	.st2{fill:#007637;}
	.st3{fill:#FFFFFF;stroke:#FFFFFF;stroke-width:0.173;stroke-miterlimit:10;}
</style>
<rect class="st0" width="300" height="400"/>
<g>
	<g>
		<path class="st1" d="M80.03,144.1h-7.94v-1h16.93v1h-7.94v36.03h-1.06V144.1z"/>
		<path class="st1" d="M96.27,143.1h13.33v1H97.33v15.71h7.99v1.01h-7.99v18.31h12.91v1.01H96.27V143.1z"/>
		<path class="st1" d="M117.43,143.1h5.82c1.48,0,2.81,0.16,3.99,0.48c1.18,0.32,2.2,0.85,3.04,1.59c0.85,0.74,1.5,1.7,1.96,2.88
			c0.46,1.18,0.69,2.64,0.69,4.37c0,2.79-0.61,4.93-1.83,6.43c-1.22,1.5-2.83,2.5-4.84,2.99l6.67,18.31h-1.16l-6.61-18.15
			c-0.21,0.07-0.54,0.12-0.98,0.16c-0.44,0.04-0.86,0.05-1.24,0.05h-4.44v17.94h-1.06V143.1z M122.94,161.19
			c1.3,0,2.5-0.16,3.6-0.48c1.09-0.32,2.04-0.83,2.83-1.53c0.79-0.7,1.41-1.61,1.85-2.72c0.44-1.11,0.66-2.46,0.66-4.05
			c0-1.55-0.2-2.86-0.61-3.92c-0.41-1.06-0.99-1.91-1.75-2.57c-0.76-0.65-1.67-1.12-2.72-1.4c-1.06-0.28-2.24-0.42-3.54-0.42h-4.76
			v17.09H122.94z"/>
		<path class="st1" d="M141.3,143.1h5.82c1.48,0,2.81,0.16,3.99,0.48c1.18,0.32,2.2,0.85,3.04,1.59c0.85,0.74,1.5,1.7,1.96,2.88
			c0.46,1.18,0.69,2.64,0.69,4.37c0,2.79-0.61,4.93-1.83,6.43c-1.22,1.5-2.83,2.5-4.84,2.99l6.67,18.31h-1.16l-6.61-18.15
			c-0.21,0.07-0.54,0.12-0.98,0.16c-0.44,0.04-0.86,0.05-1.24,0.05h-4.44v17.94h-1.06V143.1z M146.8,161.19c1.3,0,2.5-0.16,3.6-0.48
			c1.09-0.32,2.04-0.83,2.83-1.53c0.79-0.7,1.41-1.61,1.85-2.72c0.44-1.11,0.66-2.46,0.66-4.05c0-1.55-0.2-2.86-0.61-3.92
			c-0.41-1.06-0.99-1.91-1.75-2.57c-0.76-0.65-1.67-1.12-2.72-1.4c-1.06-0.28-2.24-0.42-3.54-0.42h-4.76v17.09H146.8z"/>
		<path class="st1" d="M165.85,174.74l-1.27,5.4h-1.01l8.89-37.2h1.22l8.89,37.2h-1.06l-2.54-10.79h-11.85L165.85,174.74z
			 M178.7,168.34c-0.25-1.16-0.53-2.42-0.85-3.76c-0.28-1.13-0.59-2.41-0.93-3.84c-0.34-1.43-0.68-2.9-1.03-4.42
			c-0.85-3.49-1.8-7.49-2.86-12.01l-5.66,24.02H178.7z"/>
		<path class="st1" d="M198.44,180.61c-2.93,0-5.23-1.53-6.91-4.6c-1.68-3.07-2.51-7.87-2.51-14.39c0-6.49,0.86-11.28,2.57-14.37
			c1.71-3.09,4.03-4.63,6.96-4.63c1.87,0,3.38,0.63,4.52,1.88c1.15,1.25,1.98,2.95,2.51,5.11l-1.01,0.26
			c-0.49-1.94-1.23-3.47-2.2-4.6c-0.97-1.13-2.25-1.69-3.84-1.69c-2.65,0-4.72,1.49-6.22,4.47c-1.5,2.98-2.25,7.51-2.25,13.57
			c0,6.14,0.74,10.68,2.22,13.62c1.48,2.95,3.55,4.42,6.19,4.42c1.62,0,2.93-0.59,3.92-1.77c0.99-1.18,1.78-2.78,2.38-4.79l1,0.26
			c-0.67,2.15-1.57,3.9-2.7,5.24C201.97,179.94,200.41,180.61,198.44,180.61z"/>
		<path class="st1" d="M213.94,143.1h13.33v1H215v15.71h7.99v1.01H215v18.31h12.91v1.01h-13.97V143.1z"/>
		<path class="st1" d="M86.35,191.32h-7.94v-1h16.93v1h-7.94v36.03h-1.06V191.32z"/>
		<path class="st1" d="M102.59,190.32h5.82c1.48,0,2.81,0.16,3.99,0.48c1.18,0.32,2.2,0.85,3.04,1.59c0.85,0.74,1.5,1.7,1.96,2.88
			c0.46,1.18,0.69,2.64,0.69,4.37c0,2.79-0.61,4.93-1.83,6.43c-1.22,1.5-2.83,2.5-4.84,2.99l6.67,18.31h-1.16l-6.61-18.15
			c-0.21,0.07-0.54,0.12-0.98,0.16c-0.44,0.04-0.86,0.05-1.24,0.05h-4.44v17.94h-1.06V190.32z M108.09,208.41
			c1.3,0,2.5-0.16,3.6-0.48c1.09-0.32,2.04-0.83,2.83-1.53c0.79-0.7,1.41-1.61,1.85-2.72c0.44-1.11,0.66-2.46,0.66-4.05
			c0-1.55-0.2-2.86-0.61-3.92c-0.41-1.06-0.99-1.91-1.75-2.57c-0.76-0.65-1.67-1.12-2.72-1.4c-1.06-0.28-2.24-0.42-3.54-0.42h-4.76
			v17.09H108.09z"/>
		<path class="st1" d="M134.55,227.83c-2.79,0-4.91-0.86-6.38-2.59c-1.46-1.73-2.2-4.3-2.2-7.72v-27.2h1.06v27.2
			c0,3.14,0.64,5.49,1.93,7.04c1.29,1.55,3.15,2.33,5.58,2.33s4.29-0.78,5.56-2.33c1.27-1.55,1.91-3.9,1.91-7.04v-27.2h1.06v27.2
			c0,3.42-0.72,6-2.17,7.72C139.45,226.97,137.34,227.83,134.55,227.83z"/>
		<path class="st1" d="M153.23,192.86v34.5h-0.95v-37.04h1.22l9.58,34.5l9.63-34.5h1.22v37.04h-0.95v-34.5l-9.74,34.82h-0.32
			L153.23,192.86z"/>
		<path class="st1" d="M183.33,190.32h5.82c1.48,0,2.81,0.16,3.99,0.48c1.18,0.32,2.2,0.85,3.04,1.59c0.85,0.74,1.5,1.73,1.96,2.96
			c0.46,1.23,0.69,2.77,0.69,4.6c0,1.83-0.25,3.39-0.74,4.66c-0.49,1.27-1.18,2.31-2.06,3.12c-0.88,0.81-1.93,1.4-3.15,1.77
			c-1.22,0.37-2.57,0.56-4.05,0.56h-4.44v17.3h-1.06V190.32z M188.84,209.05c1.3,0,2.5-0.16,3.6-0.48c1.09-0.32,2.04-0.84,2.83-1.56
			c0.79-0.72,1.41-1.67,1.85-2.83c0.44-1.16,0.66-2.57,0.66-4.23c0-1.62-0.2-2.99-0.61-4.1c-0.41-1.11-0.99-2-1.75-2.67
			c-0.76-0.67-1.67-1.15-2.72-1.43c-1.06-0.28-2.24-0.42-3.54-0.42h-4.76v17.73H188.84z"/>
		<path class="st1" d="M212.65,227.83c-1.91,0-3.5-0.53-4.79-1.59c-1.29-1.06-2.32-2.75-3.09-5.08l0.95-0.32
			c0.71,2.05,1.61,3.56,2.72,4.55c1.11,0.99,2.51,1.48,4.21,1.48c1.94,0,3.53-0.64,4.76-1.93c1.23-1.29,1.85-3.18,1.85-5.69
			c0-1.06-0.11-2.05-0.34-2.96c-0.23-0.92-0.62-1.81-1.16-2.67c-0.55-0.86-1.27-1.74-2.17-2.62c-0.9-0.88-2.02-1.82-3.36-2.8
			c-1.34-0.95-2.46-1.84-3.36-2.67c-0.9-0.83-1.61-1.65-2.14-2.46c-0.53-0.81-0.91-1.65-1.14-2.51c-0.23-0.86-0.34-1.81-0.34-2.83
			c0-2.33,0.63-4.22,1.91-5.69c1.27-1.46,3.07-2.2,5.4-2.2c1.02,0,1.93,0.15,2.72,0.45c0.79,0.3,1.49,0.7,2.09,1.19
			c0.6,0.49,1.12,1.09,1.56,1.77c0.44,0.69,0.82,1.42,1.14,2.2l-0.95,0.37c-0.32-0.67-0.66-1.31-1.03-1.93
			c-0.37-0.62-0.82-1.15-1.35-1.61c-0.53-0.46-1.14-0.82-1.83-1.09c-0.69-0.26-1.47-0.4-2.35-0.4c-2.01,0-3.55,0.65-4.63,1.96
			c-1.08,1.31-1.61,2.96-1.61,4.97c0,0.95,0.11,1.83,0.34,2.62c0.23,0.79,0.61,1.56,1.14,2.3c0.53,0.74,1.21,1.49,2.04,2.25
			c0.83,0.76,1.84,1.58,3.04,2.46c1.48,1.06,2.71,2.06,3.68,3.02c0.97,0.95,1.73,1.9,2.28,2.83c0.55,0.94,0.93,1.9,1.16,2.88
			c0.23,0.99,0.34,2.05,0.34,3.17c0,1.41-0.19,2.65-0.58,3.73c-0.39,1.08-0.93,1.97-1.61,2.67c-0.69,0.71-1.5,1.24-2.43,1.61
			C214.75,227.65,213.74,227.83,212.65,227.83z"/>
	</g>
	<rect x="95.7" y="239.55" class="st2" width="108.6" height="18.33"/>
	<g>
		<path class="st3" d="M125.2,254.36c-1.21,0.22-2.8,0.32-4.17,0.32c-1.15,0-2.15-0.07-2.69-0.18c-1.66-0.37-2.37-1.41-2.37-2.62
			c0-1.06,0.59-2.11,1.4-2.94l0.8,0.41c-0.77,0.8-1.21,1.67-1.21,2.44c0,0.8,0.54,1.52,1.71,1.78c0.48,0.11,1.29,0.16,2.24,0.16
			c1.33,0,2.92-0.11,4.23-0.37L125.2,254.36z M119.04,247.43c0.71-0.55,1.69-1.22,2.43-1.59v-0.01c-1.04,0.12-3.43,0.18-4.95,0.16
			c0-0.26,0-0.71-0.01-0.96c0.3,0.01,5.57,0.1,7.82-0.44l0.11,1.02c-1.63,0.19-3.73,1.62-4.61,2.32L119.04,247.43z"/>
		<path class="st3" d="M127.65,254.81c1.02-2.91,2.7-7.76,3.24-9.22c0.26-0.74,0.62-1.78,0.71-2.13l1.48,0.38
			c-0.07,0.19-0.26,0.26-0.54,0.26c-0.75,1.88-1.92,5.09-2.43,6.46h0.01c0.81-0.99,2.04-1.69,3-1.69c1.19,0,1.77,0.81,1.73,2.09
			l-0.04,1.63c-0.01,1.03,0.53,1.59,1.43,1.59c1.23,0,2.37-1.41,3-3.77c0.27,0.19,0.6,0.37,0.89,0.51
			c-0.75,2.62-2.11,4.27-3.94,4.27c-1.45,0-2.4-0.88-2.4-2.28c0-0.26,0.04-1.52,0.04-1.81c0-0.86-0.36-1.32-0.96-1.32
			c-1.58,0-3.17,2.29-3.51,3.18c-0.19,0.48-0.49,1.36-0.75,2.15L127.65,254.81z"/>
		<path class="st3" d="M143.41,255c-0.43-0.99-0.59-3.03-0.59-4.83c0-1.82,0.29-4.12,0.74-6.41l1.33,0.26
			c-0.03,0.14-0.16,0.23-0.36,0.25c-0.49,1.88-0.8,4.32-0.8,5.91c0,1.04,0.01,2.09,0.12,2.59c0.3-0.82,0.86-2.14,1.14-2.78
			l0.62,0.58c-0.45,0.93-1.41,3.02-1.41,3.66c0,0.19,0.04,0.4,0.14,0.66L143.41,255z M146.51,247.02c0.32,0,2.54,0.01,3.46-0.04
			c-0.05-1.18-0.1-2.3-0.12-3.32l1.39,0.04c-0.01,0.14-0.14,0.25-0.36,0.29c0,0.88,0.04,1.87,0.07,2.92
			c1.07-0.12,1.96-0.3,2.69-0.55l0.12,0.95c-0.66,0.22-1.6,0.41-2.78,0.51l0.18,3.9c1.03,0.43,2.09,1.1,2.8,1.74l-0.53,0.88
			c-0.58-0.56-1.37-1.17-2.24-1.56c0,1.12-0.19,2.47-2.28,2.47c-1.6,0-2.68-0.77-2.68-1.98c0-1.4,1.4-2.02,2.68-2.02
			c0.43,0,0.86,0.05,1.3,0.18c-0.06-0.86-0.12-2.21-0.19-3.55c-0.44,0.03-1,0.05-1.4,0.05h-2.1V247.02z M150.29,252.32
			c-0.43-0.14-0.91-0.25-1.36-0.25c-0.84,0-1.82,0.3-1.82,1.17c0,0.77,0.81,1.15,1.82,1.15s1.39-0.49,1.37-1.59
			C150.3,252.69,150.3,252.45,150.29,252.32z M153.07,246.11c-0.32-0.63-0.86-1.41-1.51-2.02l0.48-0.36
			c0.66,0.63,1.23,1.37,1.56,2.03L153.07,246.11z M154.58,245.13c-0.34-0.67-0.88-1.37-1.5-1.98l0.48-0.37
			c0.67,0.64,1.19,1.3,1.55,2L154.58,245.13z"/>
		<path class="st3" d="M156.65,254.81c1.02-2.91,2.7-7.76,3.24-9.22c0.26-0.74,0.62-1.78,0.71-2.13l1.48,0.38
			c-0.07,0.19-0.26,0.26-0.53,0.26c-0.75,1.88-1.92,5.09-2.43,6.46h0.01c0.81-0.99,2.04-1.69,3-1.69c1.19,0,1.77,0.81,1.73,2.09
			l-0.04,1.63c-0.01,1.03,0.54,1.59,1.43,1.59c1.23,0,2.37-1.41,3-3.77c0.27,0.19,0.6,0.37,0.89,0.51
			c-0.75,2.62-2.11,4.27-3.94,4.27c-1.45,0-2.4-0.88-2.4-2.28c0-0.26,0.04-1.52,0.04-1.81c0-0.86-0.36-1.32-0.96-1.32
			c-1.58,0-3.17,2.29-3.51,3.18c-0.19,0.48-0.49,1.36-0.75,2.15L156.65,254.81z"/>
		<path class="st3" d="M172.4,255c-0.43-0.99-0.59-3.03-0.59-4.83c0-1.82,0.29-4.12,0.74-6.41l1.33,0.26
			c-0.03,0.14-0.16,0.23-0.36,0.25c-0.49,1.88-0.8,4.32-0.8,5.91c0,1.04,0.01,2.09,0.12,2.59c0.3-0.82,0.85-2.14,1.14-2.78
			l0.62,0.58c-0.45,0.93-1.41,3.02-1.41,3.66c0,0.19,0.04,0.4,0.14,0.66L172.4,255z M175.89,246.92c1.15,0.01,2.3,0.03,3.46-0.05
			c-0.06-1.18-0.1-2.19-0.12-3.21l1.39,0.04c-0.01,0.14-0.14,0.25-0.36,0.29c0.01,0.88,0.04,1.77,0.07,2.81
			c1.08-0.11,1.96-0.3,2.69-0.55l0.12,0.96c-0.66,0.21-1.6,0.4-2.77,0.49c0.06,1.52,0.12,3.13,0.16,4.01
			c1.04,0.43,2.09,1.1,2.8,1.74l-0.54,0.88c-0.56-0.56-1.37-1.17-2.22-1.56c-0.01,1.17-0.23,2.47-2.29,2.47
			c-1.6,0-2.67-0.77-2.67-1.98c0-1.4,1.41-2.02,2.67-2.02c0.43,0,0.88,0.05,1.3,0.18c-0.04-0.86-0.12-2.3-0.19-3.65
			c-0.43,0.03-1,0.04-1.4,0.04h-2.09L175.89,246.92z M179.65,252.32c-0.44-0.14-0.91-0.25-1.36-0.25c-0.84,0-1.84,0.3-1.84,1.17
			c0,0.77,0.82,1.15,1.82,1.15c1.02,0,1.39-0.49,1.39-1.59L179.65,252.32z"/>
	</g>
</g>
</svg>
